{"accessors":[{"bufferView":0,"byteOffset":0,"componentType":5126,"count":8583,"max":[1.0,0.6592938303947449,0.0],"min":[0.0,0.14409837126731873,0.0],"type":"VEC3"},{"bufferView":1,"byteOffset":0,"componentType":5126,"count":8583,"normalized":false,"type":"VEC2"},{"bufferView":2,"byteOffset":0,"componentType":5125,"count":14589,"type":"SCALAR"},{"bufferView":4,"byteOffset":0,"componentType":5126,"count":1240,"max":[0.9997590131105949,0.6582059103127633,0.0],"min":[0.0005743447525863744,0.1459298561777022,0.0],"type":"VEC3"},{"bufferView":5,"byteOffset":0,"componentType":5125,"count":1240,"type":"SCALAR"}],"asset":{"generator":"VTK","version":"2.0"},"bufferViews":[{"buffer":0,"byteLength":102996,"byteOffset":0},{"buffer":1,"byteLength":68664,"byteOffset":0},{"buffer":2,"byteLength":58356,"byteOffset":0},{"buffer":3,"byteLength":293,"byteOffset":0},{"buffer":4,"byteLength":14880,"byteOffset":0},{"buffer":5,"byteLength":4960,"byteOffset":0}],"buffers":[{"byteLength":102996,"uri":"data:application/octet-stream;base64,"},{"byteLength":68664,"uri":"data:application/octet-stream;base64,"},{"byteLength":58356,"uri":"data:application/octet-stream;base64,"},{"byteLength":293,"uri":"data:application/octet-stream;base64,"},{"byteLength":14880,"uri":"data:application/octet-stream;base64,"},{"byteLength":4960,"uri":"data:application/octet-stream;base64,"}],"cameras":[{"perspective":{"aspectRatio":1.3333333333333333,"yfov":0.5235987755982988,"zfar":1000.01,"znear":0.01},"type":"perspective"}],"images":[{"bufferView":3,"mimeType":"image/png"}],"materials":[{"pbrMetallicRoughness":{"baseColorFactor":[1.0,1.0,1.0,1.0],"baseColorTexture":{"index":0,"texCoord":0},"metallicFactor":0.0,"roughnessFactor":1.0}},{"pbrMetallicRoughness":{"baseColorFactor":[1.0,1.0,1.0,1.0],"metallicFactor":0.0,"roughnessFactor":1.0}}],"meshes":[{"name":"mesh0","primitives":[{"attributes":{"POSITION":0,"TEXCOORD_0":1},"indices":2,"material":0,"mode":4}]},{"name":"mesh1","primitives":[{"attributes":{"POSITION":3},"indices":4,"material":1,"mode":0}]}],"nodes":[{"matrix":[0.0,0.0,1.0000000000000004,0.0,1.0000000000000004,0.0,0.0,0.0,0.0,1.0000000000000004,0.0,0.0,0.0,0.0,0.0,1.0],"mesh":0,"name":"mesh0"},{"matrix":[0.0,0.0,1.0000000000000004,0.0,1.0000000000000004,0.0,0.0,0.0,0.0,1.0000000000000004,0.0,0.0,0.0,0.0,0.0,1.0],"mesh":1,"name":"mesh1"},{"camera":0,"matrix":[1.0,-0.0,0.0,-0.0,-0.0,1.0,-0.0,0.0,0.0,-0.0,1.0,-0.0,-0.0,0.0,1.0,1.0],"name":"Camera Node"},{"children":[0,1,2],"name":"Renderer Node"}],"samplers":[{"magFilter":9728,"minFilter":9728,"wrapS":33071,"wrapT":33071}],"scene":0,"scenes":[{"name":"Layer 0","nodes":[3]}],"textures":[{"sampler":0,"source":0}]}