{"accessors":[{"bufferView":0,"byteOffset":0,"componentType":5126,"count":8577,"max":[0.9764259992048404,1.0,0.0],"min":[0.08824577204809789,0.0,0.0],"type":"VEC3"},{"bufferView":1,"byteOffset":0,"componentType":5126,"count":8577,"normalized":false,"type":"VEC2"},{"bufferView":2,"byteOffset":0,"componentType":5125,"count":14625,"type":"SCALAR"},{"bufferView":4,"byteOffset":0,"componentType":5126,"count":1234,"max":[0.9720464587944324,0.9953664282817956,0.0],"min":[0.09443161766718777,0.006208775025762243,0.0],"type":"VEC3"},{"bufferView":5,"byteOffset":0,"componentType":5125,"count":1234,"type":"SCALAR"}],"asset":{"generator":"VTK","version":"2.0"},"bufferViews":[{"buffer":0,"byteLength":102924,"byteOffset":0},{"buffer":1,"byteLength":68616,"byteOffset":0},{"buffer":2,"byteLength":58500,"byteOffset":0},{"buffer":3,"byteLength":293,"byteOffset":0},{"buffer":4,"byteLength":14808,"byteOffset":0},{"buffer":5,"byteLength":4936,"byteOffset":0}],"buffers":[{"byteLength":102924,"uri":"data:application/octet-stream;base64,"},{"byteLength":68616,"uri":"data:application/octet-stream;base64,"},{"byteLength":58500,"uri":"data:application/octet-stream;base64,"},{"byteLength":293,"uri":"data:application/octet-stream;base64,"},{"byteLength":14808,"uri":"data:application/octet-stream;base64,"},{"byteLength":4936,"uri":"data:application/octet-stream;base64,"}],"cameras":[{"perspective":{"aspectRatio":1.3333333333333333,"yfov":0.5235987755982988,"zfar":1000.01,"znear":0.01},"type":"perspective"}],"images":[{"bufferView":3,"mimeType":"image/png"}],"materials":[{"pbrMetallicRoughness":{"baseColorFactor":[1.0,1.0,1.0,1.0],"baseColorTexture":{"index":0,"texCoord":0},"metallicFactor":0.0,"roughnessFactor":1.0}},{"pbrMetallicRoughness":{"baseColorFactor":[1.0,1.0,1.0,1.0],"metallicFactor":0.0,"roughnessFactor":1.0}}],"meshes":[{"name":"mesh0","primitives":[{"attributes":{"POSITION":0,"TEXCOORD_0":1},"indices":2,"material":0,"mode":4}]},{"name":"mesh1","primitives":[{"attributes":{"POSITION":3},"indices":4,"material":1,"mode":0}]}],"nodes":[{"matrix":[0.0,0.0,1.0000000000000004,0.0,1.0000000000000004,0.0,0.0,0.0,0.0,1.0000000000000004,0.0,0.0,0.0,0.0,0.0,1.0],"mesh":0,"name":"mesh0"},{"matrix":[0.0,0.0,1.0000000000000004,0.0,1.0000000000000004,0.0,0.0,0.0,0.0,1.0000000000000004,0.0,0.0,0.0,0.0,0.0,1.0],"mesh":1,"name":"mesh1"},{"camera":0,"matrix":[1.0,-0.0,0.0,-0.0,-0.0,1.0,-0.0,0.0,0.0,-0.0,1.0,-0.0,-0.0,0.0,1.0,1.0],"name":"Camera Node"},{"children":[0,1,2],"name":"Renderer Node"}],"samplers":[{"magFilter":9728,"minFilter":9728,"wrapS":33071,"wrapT":33071}],"scene":0,"scenes":[{"name":"Layer 0","nodes":[3]}],"textures":[{"sampler":0,"source":0}]}